<svg xmlns="http://www.w3.org/2000/svg" viewBox="0 0 800 800"><path d="M0 0h800v800H0z" fill="#FF001E"/><path fill="#000" d="M800 560H0v240h800V560Z"/><path fill="#fff" d="M315 620H142.27c-1.52 0-2.28.9-2.28 2.27v115.3c0 1.38.75 2.3 2.28 2.3l172.71.13c50.29 0 75-16.55 75-60.15 0-43.3-24.71-59.85-75-59.85Zm-45 100h-60v-80h60c31.89 0 45 11.14 45 39.85-.02 28.73-13.11 40.15-45 40.15Zm396.59 15.13-50.27-34.98c-1.24-.92-2-1.37-2-1.98 0-.6.45-.92 1.53-.92 25.44 0 44.14-11.4 44.14-37.25 0-25.7-15.92-40-47.23-40H422.31c-1.54 0-2.32.9-2.32 2.27v115.44c0 1.37.77 2.3 2.32 2.3h65.18c1.8 0 2.5-1.1 2.5-2.3V710h50l36.09 28.3a6.74 6.74 0 0 0 4.93 1.67h87.13c1.24 0 1.85-.46 1.85-1.38 0-1.19-2.16-2.55-3.4-3.47ZM559.99 690h-70v-50h70c20.36 0 30 8.42 30 25 0 16.73-9.64 25-30 25Z"/><path fill="#fff" d="M399.6 126.98h.67c57.74.14 104.7 47.23 104.7 104.98 0 57.9-47.1 105.01-105 105.01s-105-47.11-105-105.01c0-57.72 46.96-104.81 104.65-104.98Zm250.25 120.68c.82 1.13 1.63 2.26 2.42 3.4a293.24 293.24 0 0 1 12.36 19.46 299.4 299.4 0 0 1-12.51 19.72c-.66.94-1.34 1.87-2.01 2.8l-1.54 2.13a316.06 316.06 0 0 1-14.7 19.01 309.08 309.08 0 0 1-13.92 15.48l-.74.8-.88.95a310.17 310.17 0 0 1-18.68 17.5c-.36.3-.73.6-1.08.91a301.3 301.3 0 0 1-16.07 12.85c-1.53 1.15-3.1 2.27-4.65 3.39a307.96 307.96 0 0 1-15.55 10.45l-1.8 1.14c-.87.56-1.74 1.12-2.63 1.67-6.76 4.09-13.67 8-20.76 11.59a309.74 309.74 0 0 1-21.01 9.5c-.43.17-.84.36-1.25.56-.39.18-.77.36-1.17.52l.17-.22A304.52 304.52 0 0 1 400 423.34c-40.24 0-78.61-7.9-113.8-22.04.08.07.13.12.16.2-.38-.15-.75-.32-1.12-.5a17.7 17.7 0 0 0-1.11-.5 305.7 305.7 0 0 1-20.2-9.12l-.3-.14c-.28-.12-.54-.23-.81-.37a300.37 300.37 0 0 1-20.35-11.33c-1.37-.82-2.7-1.67-4.03-2.53l-1.6-1.03a321.6 321.6 0 0 1-13.97-9.39l-.62-.44c-1.81-1.3-3.62-2.6-5.4-3.95a310.54 310.54 0 0 1-13.88-11.09l-1.79-1.48c-.8-.66-1.61-1.32-2.4-2.01a299.75 299.75 0 0 1-16.7-15.78 53.57 53.57 0 0 1-2.06-2.2 83.6 83.6 0 0 0-1.43-1.55 316.06 316.06 0 0 1-12.01-13.36 235.07 235.07 0 0 1-4.04-4.93l-.77-.95a322.85 322.85 0 0 1-9.92-13.07l-1.06-1.47a302.98 302.98 0 0 1-15.43-23.77 307.17 307.17 0 0 1 12.54-19.72c.76-1.1 1.55-2.19 2.34-3.27l1.2-1.66a310.43 310.43 0 0 1 14.69-19.01 315.24 315.24 0 0 1 14.74-16.37l.8-.86a310 310 0 0 1 17.59-16.6l.77-.64 1.4-1.17a303.96 303.96 0 0 1 16.07-12.83c1.08-.82 2.18-1.6 3.27-2.4l1.38-1a310.64 310.64 0 0 1 17.6-11.76c.79-.5 1.57-1.02 2.37-1.5a309.6 309.6 0 0 1 21-11.7l.1-.05c.2-.11.39-.2.58-.28l.25-.11c.65-.26 1.3-.49 2.05-.49 3.2 0 5.78 2.59 5.78 5.77 0 .8-.2 1.55-.48 2.23a147.37 147.37 0 0 0-20.5 74.85c0 82.21 66.9 149.09 149.08 149.09 82.2 0 149.08-66.88 149.08-149.09 0-27.35-7.6-52.88-20.54-74.91a5.77 5.77 0 0 1-.47-2.17c0-3.19 2.6-5.77 5.78-5.77a5.63 5.63 0 0 1 2.13.51l.1.05.36.16.77.36c6.94 3.51 13.7 7.32 20.33 11.32 1.3.8 2.57 1.62 3.85 2.44l1.77 1.14c4.74 2.99 9.42 6.14 14 9.39l.45.32c1.86 1.34 3.73 2.67 5.56 4.06a297.9 297.9 0 0 1 13.87 11.09c.53.45 1.07.88 1.61 1.32.87.72 1.75 1.43 2.6 2.17a302.92 302.92 0 0 1 16.69 15.77c.71.73 1.4 1.49 2.1 2.24l1.39 1.51c4.14 4.35 8.14 8.8 12 13.37 1.3 1.53 2.55 3.08 3.8 4.63l1.02 1.25c3.4 4.25 6.7 8.61 9.9 13.05l1.72 2.4Z"/></svg>
